<svg width="24" height="24" viewBox="0 0 24 24" fill="none" xmlns="http://www.w3.org/2000/svg">
<path fill-rule="evenodd" clip-rule="evenodd" d="M16.4185 2.603C16.3726 2.26247 16.083 2 15.7325 2C15.3501 2 15.0402 2.31236 15.0402 2.69767V3.46902H8.96832V2.69767L8.962 2.603C8.91615 2.26247 8.6265 2 8.27601 2C7.89366 2 7.58371 2.31236 7.58371 2.69767V3.48633C4.74662 3.68165 3 5.51986 3 8.48578V16.9041C3 20.0872 4.95834 22 8.09625 22H15.9036C19.0453 22 20.9999 20.1193 20.9999 16.9744V8.48578C21.009 5.51881 19.268 3.68113 16.4248 3.48625V2.69767L16.4185 2.603ZM15.0402 4.86436V5.75887L15.0465 5.85354C15.0923 6.19407 15.382 6.45654 15.7325 6.45654C16.1148 6.45654 16.4248 6.14418 16.4248 5.75887V4.88498C18.4934 5.05708 19.6218 6.30273 19.6152 8.48364V8.88768H4.38449V8.48578C4.38449 6.30614 5.51924 5.05785 7.58371 4.8851V5.75887L7.59003 5.85354C7.63587 6.19407 7.92552 6.45654 8.27601 6.45654C8.65836 6.45654 8.96832 6.14418 8.96832 5.75887V4.86436H15.0402ZM4.38449 10.283V16.9041C4.38449 19.3067 5.71339 20.6046 8.09613 20.6046H15.9035C18.2944 20.6046 19.6152 19.3338 19.6152 16.9744L19.6152 10.283H4.38449ZM16.8008 13.2183C16.8008 12.833 16.4909 12.5206 16.1085 12.5206L16.006 12.527C15.6681 12.5732 15.4076 12.8651 15.4076 13.2183C15.4076 13.6036 15.7176 13.916 16.1085 13.916L16.2024 13.9096C16.5404 13.8634 16.8008 13.5715 16.8008 13.2183ZM12.0128 12.5206C12.3951 12.5206 12.7051 12.833 12.7051 13.2183C12.7051 13.5715 12.4447 13.8634 12.1067 13.9096L12.0128 13.916C11.6219 13.916 11.3119 13.6036 11.3119 13.2183C11.3119 12.8651 11.5724 12.5732 11.9103 12.527L12.0128 12.5206ZM8.60019 13.2183C8.60019 12.833 8.29024 12.5206 7.90789 12.5206L7.80539 12.527C7.46748 12.5732 7.20703 12.8651 7.20703 13.2183C7.20703 13.6036 7.51699 13.916 7.89934 13.916L8.00183 13.9096C8.33974 13.8634 8.60019 13.5715 8.60019 13.2183ZM16.1085 16.136C16.4909 16.136 16.8008 16.4484 16.8008 16.8337C16.8008 17.1869 16.5404 17.4788 16.2024 17.525L16.1085 17.5314C15.7176 17.5314 15.4076 17.219 15.4076 16.8337C15.4076 16.4805 15.6681 16.1886 16.006 16.1424L16.1085 16.136ZM12.7051 16.8337C12.7051 16.4484 12.3951 16.136 12.0128 16.136L11.9103 16.1424C11.5724 16.1886 11.3119 16.4805 11.3119 16.8337C11.3119 17.219 11.6219 17.5314 12.0128 17.5314L12.1067 17.525C12.4447 17.4788 12.7051 17.1869 12.7051 16.8337ZM7.90789 16.136C8.29024 16.136 8.60019 16.4484 8.60019 16.8337C8.60019 17.1869 8.33974 17.4788 8.00183 17.525L7.89934 17.5314C7.51699 17.5314 7.20703 17.219 7.20703 16.8337C7.20703 16.4805 7.46748 16.1886 7.80539 16.1424L7.90789 16.136Z" fill="#241E36"/>
</svg>
