<svg width="70" height="79" viewBox="0 0 70 79" fill="none" xmlns="http://www.w3.org/2000/svg">
<g clip-path="url(#clip0_161_11534)">
<path d="M29.1597 56.7869C31.1594 53.1709 32.4196 47.5825 32.4196 41.3367C32.4196 40.7614 32.4196 40.1861 32.3922 39.6108H38.1449C38.1175 40.1861 38.1175 40.734 38.1175 41.3367C38.1175 47.5825 39.405 53.1709 41.3774 56.7869H29.1597Z" fill="#F8B805"/>
<path opacity="0.5" d="M38.1166 41.3367C38.1166 40.7614 38.1166 40.1861 38.144 39.6108H32.3913C32.4187 40.1861 32.4187 40.734 32.4187 41.3367C32.4187 42.4598 32.3639 43.5556 32.3091 44.6239C32.3091 44.6239 35.0759 42.9255 38.2536 44.6239C38.1714 43.5282 38.1166 42.4324 38.1166 41.3367Z" fill="#F8B805"/>
<path opacity="0.5" d="M33.816 39.6108H32.9942C33.0216 40.1861 33.0216 40.734 33.0216 41.3367C33.0216 47.5825 32.008 53.1709 30.4465 56.7869H32.1997C33.1859 53.1709 33.8434 47.5825 33.8434 41.3367C33.8434 40.7614 33.8434 40.1861 33.816 39.6108Z" fill="#F8B805"/>
<path opacity="0.5" d="M41.4029 56.7869H38.3621C37.376 53.1709 36.7185 47.5825 36.7185 41.3367C36.7185 40.7614 36.7185 40.1861 36.7459 39.6108H38.1978C38.1704 40.1861 38.1704 40.734 38.1704 41.3367C38.1156 47.5825 39.4031 53.1709 41.4029 56.7869Z" fill="#F8B805"/>
<path d="M27.3566 36.1602C22.8366 36.1328 19.385 35.804 16.4538 35.0918C12.9474 34.2152 10.1532 32.7907 7.9069 30.7362C3.11295 26.2983 0.894043 18.8198 0.894043 7.25952C0.894043 6.76643 1.11319 6.27334 1.46932 5.91721C1.82544 5.56109 2.31853 5.39673 2.81162 5.39673C2.94859 5.39673 17.0839 6.02679 27.2744 5.56109C27.7675 5.5337 28.2606 5.72546 28.6441 6.08158C29.0003 6.4377 29.2194 6.9034 29.2194 7.42388V34.3248C29.2194 34.8179 29.0277 35.2836 28.6715 35.6397C28.3154 35.9684 27.8497 36.1602 27.3566 36.1602ZM4.59223 9.1771C4.81138 18.5458 6.67417 24.5725 10.3998 28.0241C13.4953 30.9005 18.0701 32.2428 25.4938 32.462V9.34146C17.7687 9.58801 8.53696 9.31407 4.59223 9.1771Z" fill="#F8B805"/>
<path opacity="0.5" d="M6.25891 7.47825C5.32752 7.45086 4.53309 8.21789 4.58788 9.14928C4.58788 9.14928 4.58788 9.14928 4.58788 9.17668C8.56001 9.31365 17.7918 9.58759 25.5169 9.34104V7.58783C18.6958 7.80698 10.7789 7.61522 6.25891 7.47825Z" fill="#F8B805"/>
<g opacity="0.5">
<g opacity="0.5">
<path opacity="0.5" d="M25.5286 32.463V32.0247C25.556 32.2438 25.556 32.3808 25.5286 32.463Z" fill="#F8B805"/>
<path opacity="0.5" d="M4.598 9.14941L4.65279 9.17681C4.6254 9.17681 4.6254 9.17681 4.598 9.14941C4.81715 18.5455 6.67994 24.5448 10.4055 28.0239C13.501 30.9002 18.0758 32.2425 25.4996 32.4617C24.9791 33.3383 22.0206 32.9 22.0206 32.9C1.91339 32.6534 4.598 9.14941 4.598 9.14941Z" fill="#F8B805"/>
</g>
</g>
<g opacity="0.5">
<g opacity="0.5">
<path opacity="0.5" d="M29.138 34.6254V7.69709C29.138 7.204 28.9188 6.71091 28.5627 6.35479C28.2066 5.99866 27.7135 5.8343 27.193 5.8343C17.0025 6.3 2.89458 5.66994 2.73022 5.66994C2.23713 5.64254 1.74404 5.8343 1.38792 6.19042C1.14137 6.43697 0.949614 6.7383 0.867432 7.06703C0.894826 6.62872 1.11398 6.21782 1.41531 5.91648C1.77143 5.56036 2.26452 5.396 2.75762 5.396C2.89458 5.396 17.0299 6.02606 27.2204 5.56036C27.7135 5.53297 28.2066 5.72472 28.5901 6.08085C28.9462 6.43697 29.1654 6.90266 29.1654 7.42315V34.324C29.1654 34.4884 29.138 34.6254 29.1106 34.7897C29.138 34.7349 29.138 34.6801 29.138 34.6254Z" fill="#F8B805"/>
</g>
</g>
<g opacity="0.5">
<g opacity="0.5">
<path opacity="0.5" d="M24.0648 35.4477C25.7359 35.4751 27.2425 35.5573 28.53 35.7216C28.2013 35.9956 27.7904 36.1599 27.3521 36.1599C22.8595 36.1326 19.3805 35.8038 16.4493 35.0916C12.9429 34.215 10.1487 32.7905 7.90238 30.7359C5.38213 28.4075 3.57413 25.2298 2.42358 21.0933C4.47813 27.2295 9.84735 35.2833 24.0648 35.4477Z" fill="#F8B805"/>
</g>
</g>
<path d="M41.9016 35.6388C41.5455 35.2827 41.3538 34.817 41.3538 34.3239V7.42305C41.3538 6.92995 41.5729 6.43686 41.929 6.08074C42.2852 5.72462 42.7782 5.56026 43.2987 5.56026C53.4893 6.02595 67.5972 5.39589 67.7615 5.39589C68.2546 5.3685 68.7477 5.56026 69.1039 5.91638C69.46 6.2725 69.6791 6.7382 69.6791 7.25868C69.6791 18.8189 67.4602 26.2701 62.6663 30.7079C60.42 32.7899 57.6532 34.2143 54.1194 35.0636C51.1882 35.7758 47.7366 36.1319 43.2166 36.1319C42.7235 36.1593 42.2578 35.9676 41.9016 35.6388ZM45.0519 9.34062V32.4611C52.5031 32.242 57.0505 30.8997 60.146 28.0233C63.8716 24.5717 65.7344 18.545 65.9535 9.17626C62.0088 9.31323 52.8044 9.58717 45.0519 9.34062Z" fill="#F8B805"/>
<path opacity="0.5" d="M45.0483 7.58783V9.34104C52.746 9.58759 61.9778 9.31365 65.9499 9.17668C65.9499 9.17668 65.9499 9.17668 65.9499 9.14928C66.0047 8.21789 65.2103 7.45086 64.2789 7.47825C59.7863 7.61522 51.842 7.80698 45.0483 7.58783Z" fill="#F8B805"/>
<g opacity="0.5">
<g opacity="0.5">
<path opacity="0.5" d="M45.036 32.463V32.0247C44.9812 32.2438 44.9812 32.3808 45.036 32.463Z" fill="#F8B805"/>
<path opacity="0.5" d="M65.9397 9.14941L65.8849 9.17681C65.9123 9.17681 65.9397 9.17681 65.9397 9.14941C65.7205 18.5455 63.8577 24.5448 60.1322 28.0239C57.0366 30.9002 52.4619 32.2425 45.0381 32.4617C45.5586 33.3383 48.5171 32.9 48.5171 32.9C68.6243 32.6534 65.9397 9.14941 65.9397 9.14941Z" fill="#F8B805"/>
</g>
</g>
<g opacity="0.5">
<g opacity="0.5">
<path opacity="0.5" d="M41.4043 34.6251V7.69685C41.4043 7.20375 41.6235 6.71066 41.9796 6.35454C42.3357 5.99842 42.8288 5.83406 43.3493 5.83406C53.5399 6.29975 67.6478 5.66969 67.8121 5.66969C68.3052 5.6423 68.7983 5.83406 69.1544 6.19018C69.401 6.43672 69.5927 6.73806 69.6749 7.06678C69.6475 6.62848 69.4284 6.21757 69.127 5.91624C68.7709 5.56012 68.2778 5.39575 67.7847 5.39575C67.6478 5.39575 53.5125 6.02581 43.3219 5.56012C42.8288 5.53272 42.3357 5.72448 41.9522 6.0806C41.5961 6.43672 41.377 6.90242 41.377 7.42291V34.3238C41.377 34.4881 41.4043 34.6251 41.4317 34.7895C41.4043 34.7347 41.4043 34.6799 41.4043 34.6251Z" fill="#F8B805"/>
</g>
</g>
<g opacity="0.5">
<g opacity="0.5">
<path opacity="0.5" d="M46.504 35.4477C44.833 35.4751 43.3263 35.5573 42.0388 35.7216C42.3675 35.9956 42.7785 36.1599 43.2168 36.1599C47.7094 36.1326 51.1884 35.8038 54.1196 35.0916C57.626 34.215 60.4202 32.7905 62.6665 30.7359C65.1867 28.4075 66.9947 25.2298 68.1453 21.0933C66.0907 27.2295 60.7215 35.2833 46.504 35.4477Z" fill="#F8B805"/>
</g>
</g>
<path d="M14.4206 -0.000244141C13.9275 2.87612 13.6536 5.91685 13.6536 9.03977C13.6536 27.832 23.3236 43.0905 35.2674 43.0905C47.2112 43.0905 56.8812 27.8594 56.8812 9.03977C56.8812 5.91685 56.6073 2.87612 56.1142 -0.000244141H14.4206V-0.000244141Z" fill="#F8B805"/>
<path d="M14.4206 -0.000244141C13.9275 2.87612 13.6536 5.91685 13.6536 9.03977C13.6536 27.832 23.3236 43.0905 35.2674 43.0905C47.2112 43.0905 56.8812 27.8594 56.8812 9.03977C56.8812 5.91685 56.6073 2.87612 56.1142 -0.000244141H14.4206V-0.000244141Z" fill="#F8B805"/>
<path opacity="0.5" d="M56.1114 -0.000244141H48.3315C48.6603 2.87612 48.8246 5.91685 48.8246 9.03977C48.8246 27.832 42.7705 43.0905 35.292 43.0905C47.2358 43.0905 56.9058 27.8594 56.9058 9.03977C56.8784 5.91685 56.6045 2.87612 56.1114 -0.000244141Z" fill="#F8B805"/>
<path opacity="0.5" d="M35.57 11.1489L38.3916 16.9017L44.747 17.8057L40.1448 22.2983L41.2406 28.5989L35.57 25.6129L29.8995 28.5989L30.9953 22.2983L26.3931 17.8057L32.7211 16.9017L35.57 11.1489Z" fill="#F7A108"/>
<path opacity="0.5" d="M21.7377 9.03977C21.7377 5.91685 21.902 2.87612 22.2308 -0.000244141H16.889C16.4506 2.87612 16.2041 5.91685 16.2041 9.03977C16.2041 27.832 24.751 43.0905 35.2703 43.0905C27.7918 43.0905 21.7377 27.8594 21.7377 9.03977Z" fill="#F8B805"/>
<path d="M19.5411 10.4371C22.0525 10.4371 24.0884 8.40114 24.0884 5.88968C24.0884 3.37823 22.0525 1.34229 19.5411 1.34229C17.0296 1.34229 14.9937 3.37823 14.9937 5.88968C14.9937 8.40114 17.0296 10.4371 19.5411 10.4371Z" fill="white"/>
<path d="M24.0643 12.2452C25.0629 12.2452 25.8724 11.4357 25.8724 10.4372C25.8724 9.43862 25.0629 8.62915 24.0643 8.62915C23.0658 8.62915 22.2563 9.43862 22.2563 10.4372C22.2563 11.4357 23.0658 12.2452 24.0643 12.2452Z" fill="white"/>
<path opacity="0.5" d="M34.9703 0.684605C46.3114 0.684605 55.5158 0.383271 55.5158 -0.000244141H14.4248C14.4248 0.383271 23.6292 0.684605 34.9703 0.684605Z" fill="#F8B805"/>
<path d="M44.0074 56.7881H26.5301C24.229 56.7881 22.3662 58.6509 22.3662 60.952H48.1713C48.1713 58.6509 46.3085 56.7881 44.0074 56.7881Z" fill="#F8B805"/>
<path opacity="0.5" d="M26.5301 57.0894H43.9801C46.1716 57.0894 47.9796 58.7878 48.1439 60.952C48.1439 58.6509 46.2811 56.7881 43.9801 56.7881H26.5301C24.229 56.7881 22.3662 58.6509 22.3662 60.952C22.5306 58.8152 24.3386 57.0894 26.5301 57.0894Z" fill="#F8B805"/>
<path opacity="0.5" d="M48.166 60.952H43.509C43.509 58.6509 42.3037 56.7881 40.8518 56.7881H44.0021C46.3032 56.7881 48.166 58.6509 48.166 60.952Z" fill="#F8B805"/>
<path opacity="0.5" d="M31.7041 56.7881H28.2525C25.9514 56.7881 24.0886 58.6509 24.0886 60.952H27.5403C27.5129 58.6509 29.3757 56.7881 31.7041 56.7881Z" fill="#F8B805"/>
<path d="M54.937 60.9507H15.6267C15.4075 60.9507 15.2432 61.115 15.2432 61.3342V76.5926C15.2432 76.8118 15.4075 76.9762 15.6267 76.9762H54.937C55.1562 76.9762 55.3205 76.8118 55.3205 76.5926V61.3342C55.3205 61.1424 55.1288 60.9507 54.937 60.9507Z" fill="#44352A"/>
<path opacity="0.3" d="M54.937 74.2375H15.6267C15.4075 74.2375 15.2432 74.0732 15.2432 73.854V76.6208C15.2432 76.8399 15.4075 77.0043 15.6267 77.0043H54.937C55.1562 77.0043 55.3205 76.8399 55.3205 76.6208V73.854C55.3205 74.0732 55.1288 74.2375 54.937 74.2375Z" fill="#44352A"/>
<g opacity="0.3">
<path opacity="0.3" d="M15.6235 77.0056H18.0342C17.1302 77.0056 16.2262 76.9782 15.3496 76.896C15.4318 76.9508 15.514 77.0056 15.6235 77.0056Z" fill="#44352A"/>
<path opacity="0.3" d="M54.9329 60.9524H42.9069C41.0441 70.0472 30.6344 77.0053 18.0332 77.0053H54.9055C55.1246 77.0053 55.289 76.8409 55.289 76.6217V61.3633C55.3164 61.1442 55.1246 60.9524 54.9329 60.9524Z" fill="#44352A"/>
</g>
<path opacity="0.3" d="M54.937 60.9507H15.6267C15.4075 60.9507 15.2432 61.115 15.2432 61.3342V61.8273C15.2432 61.6081 15.4075 61.4438 15.6267 61.4438H54.937C55.1562 61.4438 55.3205 61.6081 55.3205 61.8273V61.3342C55.3205 61.1424 55.1288 60.9507 54.937 60.9507Z" fill="#44352A"/>
<path d="M57.8952 74.9214H12.6403C12.3664 74.9214 12.1472 75.1405 12.1472 75.4145V77.8251C12.1472 78.0991 12.3664 78.3182 12.6403 78.3182H57.8952C58.1691 78.3182 58.3882 78.0991 58.3882 77.8251V75.4145C58.3882 75.1405 58.1691 74.9214 57.8952 74.9214Z" fill="#44352A"/>
<path opacity="0.3" d="M57.8952 77.881H12.6403C12.3664 77.881 12.1472 77.6619 12.1472 77.3879V77.8262C12.1472 78.1002 12.3664 78.3193 12.6403 78.3193H57.8952C58.1691 78.3193 58.3882 78.1002 58.3882 77.8262V77.3879C58.3882 77.6619 58.1691 77.881 57.8952 77.881Z" fill="#44352A"/>
<path opacity="0.3" d="M57.8952 74.9214H12.6403C12.3664 74.9214 12.1472 75.1405 12.1472 75.4145V75.8528C12.1472 75.5788 12.3664 75.3597 12.6403 75.3597H57.8952C58.1691 75.3597 58.3882 75.5788 58.3882 75.8528V75.4145C58.3882 75.1405 58.1691 74.9214 57.8952 74.9214Z" fill="#44352A"/>
<path opacity="0.3" d="M57.8943 74.9214H44.9917C45.2656 74.9214 45.4848 75.1405 45.4848 75.4145V77.8251C45.4848 78.0991 45.2656 78.3182 44.9917 78.3182H57.8943C58.1682 78.3182 58.3873 78.0991 58.3873 77.8251V75.4145C58.3873 75.1405 58.1682 74.9214 57.8943 74.9214Z" fill="#44352A"/>
<path opacity="0.3" d="M22.9411 77.8251V75.4145C22.9411 75.1405 23.1602 74.9214 23.4342 74.9214H16.4213C16.1474 74.9214 15.9282 75.1405 15.9282 75.4145V77.8251C15.9282 78.0991 16.1474 78.3182 16.4213 78.3182H23.4342C23.1602 78.3182 22.9411 78.0991 22.9411 77.8251Z" fill="#44352A"/>
<path d="M51.7048 63.335H18.8047V73.0324H51.7048V63.335Z" fill="#EFCA6F"/>
<path opacity="0.5" d="M51.7114 72.8113H18.8113V73.0304H51.7114V72.8113Z" fill="#EFCA6F"/>
<path opacity="0.5" d="M51.7114 63.334H18.8113V63.5531H51.7114V63.334Z" fill="#EFCA6F"/>
<path opacity="0.5" d="M22.3662 60.9506H48.1713C48.1713 60.704 48.1439 60.4301 48.0892 60.2109H22.4484C22.3936 60.4575 22.3662 60.704 22.3662 60.9506Z" fill="#F8B805"/>
<path opacity="0.3" d="M42.2282 63.335C40.7215 67.2249 37.626 70.5944 33.4895 73.0324H51.7065V63.335H42.2282Z" fill="#EFCA6F"/>
<path opacity="0.5" d="M20.0948 65.1147C20.4125 65.1147 20.6701 64.8571 20.6701 64.5394C20.6701 64.2217 20.4125 63.9641 20.0948 63.9641C19.7771 63.9641 19.5195 64.2217 19.5195 64.5394C19.5195 64.8571 19.7771 65.1147 20.0948 65.1147Z" fill="#EFCA6F"/>
<path opacity="0.5" d="M50.9909 64.5394C50.9909 64.2381 50.7443 63.9641 50.4156 63.9641C50.1143 63.9641 49.8403 64.2107 49.8403 64.5394C49.8403 64.8681 50.0869 65.1147 50.4156 65.1147C50.7443 65.0873 50.9909 64.8407 50.9909 64.5394Z" fill="#EFCA6F"/>
<path opacity="0.5" d="M50.4491 72.3742C50.7668 72.3742 51.0243 72.1166 51.0243 71.7989C51.0243 71.4812 50.7668 71.2236 50.4491 71.2236C50.1313 71.2236 49.8738 71.4812 49.8738 71.7989C49.8738 72.1166 50.1313 72.3742 50.4491 72.3742Z" fill="#EFCA6F"/>
<path d="M20.035 65.0324C20.3527 65.0324 20.6103 64.7748 20.6103 64.4571C20.6103 64.1394 20.3527 63.8818 20.035 63.8818C19.7173 63.8818 19.4597 64.1394 19.4597 64.4571C19.4597 64.7748 19.7173 65.0324 20.035 65.0324Z" fill="#44352A"/>
<path opacity="0.5" d="M20.0948 72.3742C20.4125 72.3742 20.6701 72.1166 20.6701 71.7989C20.6701 71.4812 20.4125 71.2236 20.0948 71.2236C19.7771 71.2236 19.5195 71.4812 19.5195 71.7989C19.5195 72.1166 19.7771 72.3742 20.0948 72.3742Z" fill="#EFCA6F"/>
<path d="M20.035 72.3193C20.3527 72.3193 20.6103 72.0617 20.6103 71.744C20.6103 71.4263 20.3527 71.1687 20.035 71.1687C19.7173 71.1687 19.4597 71.4263 19.4597 71.744C19.4597 72.0617 19.7173 72.3193 20.035 72.3193Z" fill="#44352A"/>
<path d="M50.4491 65.0324C50.7668 65.0324 51.0243 64.7748 51.0243 64.4571C51.0243 64.1394 50.7668 63.8818 50.4491 63.8818C50.1313 63.8818 49.8738 64.1394 49.8738 64.4571C49.8738 64.7748 50.1313 65.0324 50.4491 65.0324Z" fill="#44352A"/>
<path d="M50.4491 72.3193C50.7668 72.3193 51.0243 72.0617 51.0243 71.744C51.0243 71.4263 50.7668 71.1687 50.4491 71.1687C50.1313 71.1687 49.8738 71.4263 49.8738 71.744C49.8738 72.0617 50.1313 72.3193 50.4491 72.3193Z" fill="#44352A"/>
</g>
<defs>
<clipPath id="clip0_161_11534">
<rect width="68.7589" height="78.3194" fill="white" transform="translate(0.884277)"/>
</clipPath>
</defs>
</svg>
